<svg xmlns="http://www.w3.org/2000/svg" viewBox="0 0 476.56 34.23"><g id="レイヤー_2" data-name="レイヤー 2"><g id="レイヤー_1-2" data-name="レイヤー 1"><path d="M8.32,10.11a26.65,26.65,0,0,0,5.13,9.12,1.74,1.74,0,0,0-.72.75c-.23.38-.23.38-.46,0a32.46,32.46,0,0,1-4.18-8.51c0,12.39.27,22,.27,22.49,0,.19,0,.23-.23.23h-1c-.19,0-.22,0-.22-.23,0-.49.18-9.95.26-21.88A40.75,40.75,0,0,1,1.25,25.46c-.26.38-.26.38-.57,0A1.77,1.77,0,0,0,0,25,39.8,39.8,0,0,0,6.84,10.11h-2c-2.88,0-3.72.07-3.91.07s-.23,0-.23-.23V9.23C.72,9,.76,9,1,9s1,.08,3.91.08H7V4.29A17.4,17.4,0,0,0,6.76.15,13.27,13.27,0,0,1,8.28.34c.23,0,.38.15.38.27a1.53,1.53,0,0,1-.23.68,10.11,10.11,0,0,0-.19,3V9.08h.84C12,9.08,12.8,9,13,9s.23,0,.23.23V10c0,.19,0,.23-.23.23s-1-.07-3.91-.07ZM12.54,30.7a31.74,31.74,0,0,0,4.22-.3c.15,0,.3,0,.45,0a96.59,96.59,0,0,0,3.46-12.69,21.65,21.65,0,0,0,.53-4.26,9.55,9.55,0,0,1,1.41.42c.22.08.41.19.45.38s0,.19-.19.38a8.11,8.11,0,0,0-.68,2,114.16,114.16,0,0,1-3.72,13.57c3-.42,7.1-1.14,11.13-2.05a38,38,0,0,0-3.35-5.32c-.15-.19-.11-.23.35-.5s.53-.34.68-.15A48.33,48.33,0,0,1,32.9,32.33c.12.23.08.27-.45.61s-.57.34-.65.12c-.53-1.33-1.06-2.66-1.71-4a143.16,143.16,0,0,1-14.85,2.7,5.3,5.3,0,0,0-1.64.42c-.15.11-.23.19-.38.19s-.23-.12-.3-.31ZM19,4.07a6.57,6.57,0,0,0,.26-1.9,6.65,6.65,0,0,1,1.29.38c.23.07.42.22.42.38a.62.62,0,0,1-.23.41,1.83,1.83,0,0,0-.45.84,39.55,39.55,0,0,1-6,12.16c-.3.42-.3.42-.6,0a2.29,2.29,0,0,0-.73-.54A30.51,30.51,0,0,0,19,4.07ZM25.8,2.36c.53-.19.57-.19.64,0a30,30,0,0,0,8.1,13.3,2.66,2.66,0,0,0-.84.69c-.3.38-.3.38-.61,0A39.23,39.23,0,0,1,25.34,2.74C25.27,2.51,25.3,2.51,25.8,2.36Z"/><path d="M51,9.92a31,31,0,0,0,5.51,9.38,2.22,2.22,0,0,0-.69.76c-.19.38-.19.38-.45,0a34.27,34.27,0,0,1-4.75-9.35c.07,12.66.26,22.8.26,23.29,0,.19,0,.23-.23.23h-1c-.19,0-.23,0-.23-.23,0-.49.19-10.82.26-23.4a40.68,40.68,0,0,1-6.91,15c-.27.34-.27.34-.61,0a2.41,2.41,0,0,0-.68-.49c3.42-4.11,5.73-8.55,7.63-15.16h-2c-3,0-3.91.07-4.1.07s-.23,0-.23-.23V9c0-.19,0-.23.23-.23s1.1.08,4.1.08h2.43V4.29A18.14,18.14,0,0,0,49.25.15a13.57,13.57,0,0,1,1.52.19c.22,0,.38.15.38.27a1.67,1.67,0,0,1-.23.68,10.11,10.11,0,0,0-.19,3V8.89h1c3,0,3.91-.08,4.1-.08s.23,0,.23.23v.72c0,.19,0,.23-.23.23s-1.1-.07-4.1-.07Zm19.75,15.8c0,1.75,0,3.35,0,5a2.33,2.33,0,0,1-.91,2.09c-.53.49-1.75.64-5.13.57-.46,0-.49,0-.61-.46a2.31,2.31,0,0,0-.49-1,39.06,39.06,0,0,0,4.1.22c1.22,0,1.79-.38,1.79-1.67V10.26H62.92c-3.6,0-4.74.07-4.93.07s-.23,0-.23-.22v-.8c0-.19,0-.23.23-.23s1.33.08,4.93.08H69.5v-5A17.4,17.4,0,0,0,69.23,0a13.07,13.07,0,0,1,1.52.19c.23,0,.38.15.38.27a1.57,1.57,0,0,1-.23.68,10.06,10.06,0,0,0-.19,3V9.16c3.61,0,4.75-.08,4.94-.08s.23,0,.23.23v.8c0,.19,0,.22-.23.22s-1.33-.07-4.94-.07Zm-11-10.26c.45-.26.49-.3.6-.15a35,35,0,0,1,4.41,7c.08.19,0,.23-.46.57s-.53.38-.64.16a31.25,31.25,0,0,0-4.29-7.07C59.2,15.77,59.24,15.73,59.7,15.46Z"/><path d="M84.47,11.09c.35-.41.38-.45.61-.3a25.83,25.83,0,0,1,5.17,4.07c.15.15.11.19-.3.64s-.42.5-.61.31a25.16,25.16,0,0,0-5-4.18C84.13,11.51,84.17,11.47,84.47,11.09Zm.61,22.12A12.41,12.41,0,0,0,87,30a81.93,81.93,0,0,0,3.19-8.7,3,3,0,0,0,.57.6c.38.27.38.27.27.69-1.1,3.34-2.24,6.53-3.5,9.38a9.92,9.92,0,0,0-.72,1.83c0,.22-.15.38-.3.38a.86.86,0,0,1-.42-.19ZM87.29,1.67c.38-.38.41-.42.6-.3a29.44,29.44,0,0,1,5,4.4c.15.16.11.19-.31.65s-.41.46-.57.27A29.87,29.87,0,0,0,87.1,2.2C86.91,2.05,86.94,2,87.29,1.67ZM111.41,20a7.37,7.37,0,0,0,1.1-2.54,11.77,11.77,0,0,1,1.26.72c.23.15.38.3.38.46a.57.57,0,0,1-.34.45,7.18,7.18,0,0,0-1.41,1.79c-4.18,6.46-9.65,10.52-19,13.22-.45.11-.45.11-.72-.27a2.25,2.25,0,0,0-.68-.64C101,30.81,107.42,26.67,111.41,20ZM98,10.3a9,9,0,0,0,.65-2.89,8,8,0,0,1,1.33.38c.23.07.38.19.38.34a.93.93,0,0,1-.27.49,3.4,3.4,0,0,0-.45.84,28.2,28.2,0,0,1-5,9.08c-.27.34-.27.34-.69.08a2.2,2.2,0,0,0-.87-.31A22.93,22.93,0,0,0,98,10.3Zm7.87,5.13c0,2.66,0,3.57,0,4.48a2.79,2.79,0,0,1-.91,2.43c-.53.46-1.55.65-4.48.61-.49,0-.49,0-.61-.5a2.56,2.56,0,0,0-.45-1,27.35,27.35,0,0,0,3.53.19c1.06,0,1.63-.42,1.63-2V4.79a17.51,17.51,0,0,0-.26-4.14,11.71,11.71,0,0,1,1.55.19c.23,0,.38.15.38.26a1.69,1.69,0,0,1-.22.69,9.64,9.64,0,0,0-.19,3Zm5.28-7.91c.49-.23.53-.23.64,0a30.09,30.09,0,0,0,6.81,9.2,2,2,0,0,0-.8.49c-.34.31-.34.31-.61,0a34.49,34.49,0,0,1-6.5-9.27C110.54,7.71,110.65,7.71,111.11,7.52Z"/><path d="M138.77,8.4c-.26,2.31-.57,4.4-1,6.34H150.7a2.57,2.57,0,0,0,.84-.11,1.12,1.12,0,0,1,.3-.08c.16,0,.31,0,.69.46s.45.61.45.68-.07.23-.26.34a3.14,3.14,0,0,0-.76,1.14,35.86,35.86,0,0,1-6,9.16,37.16,37.16,0,0,0,13.83,6.23,2.5,2.5,0,0,0-.76.76c-.26.42-.26.42-.68.3-5.24-1.63-9.69-3.6-13.26-6.45-3,2.81-6.92,5.09-12.62,6.72-.45.11-.45.11-.68-.27a1.91,1.91,0,0,0-.68-.64c5.89-1.48,10-3.76,13.07-6.61a23.74,23.74,0,0,1-6.8-10.07,24.88,24.88,0,0,1-1,3.19,32.15,32.15,0,0,1-9.65,13.3c-.34.3-.34.3-.72,0a2.2,2.2,0,0,0-.88-.46,28,28,0,0,0,10.07-13A44.82,44.82,0,0,0,137.52,8.4h-5.4c-3.79,0-5.05.07-5.24.07s-.23,0-.23-.23V7.41c0-.19,0-.23.23-.23s1.45.08,5.24.08h5.51l.19-2a27.13,27.13,0,0,0,.12-5.1c.53,0,1.06.12,1.52.19.23,0,.42.16.42.31a1.23,1.23,0,0,1-.31.64,27.06,27.06,0,0,0-.49,4.07c-.08.68-.15,1.33-.19,1.94h14.44c3.79,0,5-.08,5.24-.08s.23,0,.23.23v.83c0,.19,0,.23-.23.23s-1.45-.07-5.24-.07Zm-.38,7.48A22.25,22.25,0,0,0,145,25.57a30.62,30.62,0,0,0,6.08-9.69Z"/><path d="M174.27,14.74v9.84a48.58,48.58,0,0,0,5.35-2.77,3.5,3.5,0,0,0-.15.8c0,.53,0,.53-.42.76a75.78,75.78,0,0,1-8.77,4.18,9.89,9.89,0,0,0-1.52.68c-.12.11-.19.19-.34.19s-.19-.08-.31-.27a6.69,6.69,0,0,1-.57-1.21,21.19,21.19,0,0,0,3.5-1l2.05-.8V14.74H172c-2.55,0-3.27.08-3.46.08s-.23,0-.23-.23v-.8c0-.19,0-.23.23-.23s.91.08,3.46.08h1.06V4.45h-1.37c-2.77,0-3.57.07-3.76.07s-.23,0-.23-.23V3.5c0-.19,0-.23.23-.23s1,.07,3.76.07h3.88c2.77,0,3.57-.07,3.76-.07s.23,0,.23.23v.79c0,.19,0,.23-.23.23s-1-.07-3.76-.07h-1.33v9.19h.95c2.54,0,3.26-.08,3.45-.08s.23,0,.23.23v.8c0,.19,0,.23-.23.23s-.91-.08-3.45-.08ZM194,2.7c3.61,0,4.87-.08,5.06-.08s.23,0,.23.23S199.23,4,199.23,7v7.26c0,3,.08,3.95.08,4.14s0,.23-.23.23-1.45-.08-5.06-.08h-3.57v5.24h4c3.69,0,4.86-.07,5.05-.07s.23,0,.23.23v.76c0,.19,0,.22-.23.22s-1.36-.07-5.05-.07h-4v6h5.85c4,0,5.32-.07,5.51-.07s.23,0,.23.22v.76c0,.19,0,.23-.23.23s-1.52-.07-5.51-.07H182.25c-4,0-5.32.07-5.51.07s-.23,0-.23-.23V31c0-.19,0-.22.23-.22s1.52.07,5.51.07h7v-6H186c-3.69,0-4.86.07-5.05.07s-.23,0-.23-.22v-.76c0-.19,0-.23.23-.23s1.36.07,5.05.07h3.3V18.54h-3.22c-3.61,0-4.87.08-5.06.08s-.23,0-.23-.23.08-1.14.08-4.14V7c0-3-.08-3.95-.08-4.14s0-.23.23-.23,1.45.08,5.06.08ZM182,10h7.25V3.8H182Zm0,7.53h7.25V11H182ZM190.45,3.8V10h7.6V3.8Zm7.6,7.22h-7.6v6.46h7.6Z"/><path d="M245.81,16.88a8.33,8.33,0,0,1-16.66.07,8.33,8.33,0,0,1,16.66-.07Zm-15,.07a6.68,6.68,0,1,0,13.36-.09A6.68,6.68,0,1,0,230.8,17Z"/><path d="M253.35,9h7.92v1.54h-6.33v5h6.33V17h-6.33v7.76h-1.59Z"/><path d="M268.42,9h7.92v1.54H270v5h6.33V17H270v7.76h-1.59Z"/><path d="M283.27,9h1.59v15.8h-1.59Z"/><path d="M306.33,12.86a6.82,6.82,0,0,0-5.63-2.73,6.71,6.71,0,0,0-6.89,6.8,6.69,6.69,0,0,0,7,6.77,7.11,7.11,0,0,0,5.55-2.61l1.25.94a8.46,8.46,0,0,1-6.91,3.13,8.08,8.08,0,0,1-8.51-8.37,8.63,8.63,0,0,1,15.42-4.88Z"/><path d="M314.93,9h1.58v15.8h-1.58Z"/><path d="M331,9l7.37,15.8h-1.69l-2.49-5.19h-6.82l-2.46,5.19h-1.77L330.62,9Zm-.2,3.35-2.73,5.72h5.42Z"/><path d="M345.22,9h1.59V23.24h6.07v1.54h-7.66Z"/><path d="M369.4,9H371l3.21,11.38L378.77,9h.33l4.47,11.38L386.85,9h1.61l-4.54,15.8h-.31l-4.66-12-4.8,12h-.28Z"/><path d="M395.82,9h9v1.54h-7.43v5h7.43V17h-7.43v6.22h7.43v1.54h-9Z"/><path d="M412,24.78V9h3.34c3.32,0,4.84,1.63,4.84,3.85a3.66,3.66,0,0,1-2,3.33c2.2.75,3.32,2.11,3.32,4.09,0,2.35-1.83,4.53-5.15,4.53Zm1.58-9.17h1.06a5,5,0,0,0,2.77-.6,2.61,2.61,0,0,0,1.12-2.18c0-1.4-1.05-2.31-2.88-2.31h-2.07Zm0,7.63h1.91c.69,0,1.37-.11,1.9-.15a2.93,2.93,0,0,0,2.44-2.82,2.89,2.89,0,0,0-1.54-2.53,7.79,7.79,0,0,0-3.63-.59h-1.08Z"/><path d="M435.09,12.15c-.86-1.12-1.6-1.93-2.9-1.93a2,2,0,0,0-2.14,2,3.19,3.19,0,0,0,1.41,2.44c3,2.2,5.15,3.72,5.15,6.27a4.35,4.35,0,0,1-4.44,4.25c-2.18,0-3.61-1.21-4.78-3.35l1.34-.81c.95,1.74,2.09,2.62,3.3,2.62A2.8,2.8,0,0,0,435,21c0-1.73-1.63-2.72-5.21-5.63a4.13,4.13,0,0,1-1.35-3,3.67,3.67,0,0,1,3.83-3.69c1.94,0,3.1,1.16,4.14,2.57Z"/><path d="M444.16,9h1.58v15.8h-1.58Z"/><path d="M452.19,10.52V9h8.66v1.54h-3.52V24.78h-1.58V10.52Z"/><path d="M467.54,9h9v1.54h-7.43v5h7.43V17h-7.43v6.22h7.43v1.54h-9Z"/></g></g></svg>