<svg xmlns="http://www.w3.org/2000/svg" viewBox="0 0 337.72 102.51"><g id="レイヤー_2" data-name="レイヤー 2"><g id="レイヤー_1-2" data-name="レイヤー 1"><path d="M14.45,17.55a46.17,46.17,0,0,0,8.91,15.84,3.08,3.08,0,0,0-1.25,1.32c-.4.66-.4.66-.79.07A55.79,55.79,0,0,1,14.06,20c.06,21.51.46,38.21.46,39.06,0,.34-.07.4-.4.4H12.41c-.33,0-.4-.06-.4-.4,0-.85.33-17.29.46-38-2,8.91-6,16.57-10.29,23.17-.46.66-.46.66-1,0A3.06,3.06,0,0,0,0,43.36,69.3,69.3,0,0,0,11.88,17.55H8.45c-5,0-6.47.14-6.8.14s-.4-.07-.4-.4V16c0-.33.07-.4.4-.4s1.78.13,6.8.13h3.76V7.46c0-3.83-.07-5.61-.46-7.2a21.64,21.64,0,0,1,2.64.33c.39.07.66.27.66.47a2.76,2.76,0,0,1-.4,1.18c-.26.66-.33,1.79-.33,5.15v8.38h1.45c5,0,6.47-.13,6.8-.13s.4.07.4.4v1.25c0,.33-.07.4-.4.4s-1.78-.14-6.8-.14Zm7.33,35.77a53.59,53.59,0,0,0,7.32-.52c.27,0,.53-.07.8-.07a170,170,0,0,0,6-22,37.52,37.52,0,0,0,.92-7.39,14.14,14.14,0,0,1,2.45.72c.39.13.72.33.79.66s-.07.33-.33.66a13.84,13.84,0,0,0-1.19,3.5A193.89,193.89,0,0,1,32.07,52.4c5.28-.73,12.34-2,19.34-3.56A67.15,67.15,0,0,0,45.6,39.6c-.26-.33-.2-.4.6-.86s.92-.6,1.18-.27a83.85,83.85,0,0,1,9.77,17.69c.2.4.13.46-.79,1.06s-1,.59-1.12.2c-.93-2.31-1.85-4.62-3-6.87a251,251,0,0,1-25.81,4.69,9.14,9.14,0,0,0-2.83.72c-.27.2-.4.33-.66.33s-.4-.19-.53-.52ZM33.06,7.06a10.77,10.77,0,0,0,.46-3.3,13.66,13.66,0,0,1,2.25.66c.4.13.72.4.72.66a1.13,1.13,0,0,1-.39.73,3,3,0,0,0-.79,1.45A68.57,68.57,0,0,1,24.88,28.38c-.53.72-.53.72-1.06.06a3.75,3.75,0,0,0-1.25-.92A53.06,53.06,0,0,0,33.06,7.06Zm11.75-3c.92-.33,1-.33,1.12.07C48.64,13,53.52,21.38,60,27.26a4.78,4.78,0,0,0-1.45,1.18c-.53.66-.53.66-1.06.07A68,68,0,0,1,44,4.75C43.89,4.36,44,4.36,44.81,4.09Z"/><path d="M85.2,17.22a55,55,0,0,0,9.57,16.31,3.73,3.73,0,0,0-1.18,1.32c-.33.65-.33.65-.8,0a59.92,59.92,0,0,1-8.25-16.24c.14,22,.47,39.6.47,40.45,0,.34-.07.4-.4.4H82.89c-.33,0-.39-.06-.39-.4,0-.85.33-18.8.46-40.65A71,71,0,0,1,71,44.48c-.46.59-.46.59-1.06-.07a4.36,4.36,0,0,0-1.18-.85c5.94-7.13,10-14.85,13.26-26.34h-3.5c-5.21,0-6.79.14-7.12.14s-.4-.07-.4-.4V15.71c0-.33.07-.4.4-.4s1.91.13,7.12.13H82.7v-8c0-3.83-.07-5.61-.47-7.2a21.38,21.38,0,0,1,2.64.33c.4.07.66.27.66.47a2.74,2.74,0,0,1-.39,1.18c-.27.66-.33,1.79-.33,5.15v8.05h1.71c5.22,0,6.8-.13,7.13-.13s.4.07.4.4V17c0,.33-.07.4-.4.4s-1.91-.14-7.13-.14Zm34.32,27.46c0,3,.07,5.81.07,8.71A4.06,4.06,0,0,1,118,57c-.92.86-3,1.12-8.91,1-.79,0-.85,0-1-.79a4.06,4.06,0,0,0-.86-1.78,68.21,68.21,0,0,0,7.13.39c2.11,0,3.1-.66,3.1-2.9V17.82H106c-6.27,0-8.25.13-8.58.13s-.39-.07-.39-.4V16.17c0-.33.06-.4.39-.4s2.31.13,8.58.13h11.42V7.19c0-3.82-.07-5.61-.46-7.19a26,26,0,0,1,2.64.33c.39.07.66.26.66.46a2.8,2.8,0,0,1-.4,1.19c-.26.66-.33,1.78-.33,5.15V15.9c6.27,0,8.25-.13,8.58-.13s.4.07.4.4v1.38c0,.33-.07.4-.4.4s-2.31-.13-8.58-.13ZM100.38,26.86c.79-.46.86-.53,1.06-.26a61.13,61.13,0,0,1,7.65,12.07c.14.33.07.4-.79,1s-.92.66-1.12.27a53.66,53.66,0,0,0-7.46-12.28C99.53,27.39,99.59,27.32,100.38,26.86Z"/><path d="M140.12,19.27c.59-.73.66-.79,1-.53a45.75,45.75,0,0,1,9,7.06c.26.27.2.33-.53,1.13s-.73.85-1.06.52a44.61,44.61,0,0,0-8.71-7.26C139.52,20,139.59,19.93,140.12,19.27Zm1,38.41a21.77,21.77,0,0,0,3.3-5.61A145.07,145.07,0,0,0,150,37a5.06,5.06,0,0,0,1,1c.66.46.66.46.46,1.19-1.92,5.81-3.9,11.35-6.07,16.3a16,16,0,0,0-1.26,3.17c-.06.39-.26.66-.52.66a1.51,1.51,0,0,1-.73-.33ZM145,2.9c.66-.66.73-.72,1.06-.52A50.41,50.41,0,0,1,154.77,10c.26.27.2.33-.53,1.12s-.73.79-1,.47a52.28,52.28,0,0,0-8.58-7.79C144.34,3.56,144.41,3.5,145,2.9Zm41.91,31.88a13,13,0,0,0,1.91-4.42A21.12,21.12,0,0,1,191,31.61c.39.27.66.53.66.79a1,1,0,0,1-.6.8,12.87,12.87,0,0,0-2.44,3.1c-7.26,11.22-16.76,18.28-33,23-.8.2-.8.2-1.26-.46a3.78,3.78,0,0,0-1.19-1.12C168.76,53.52,180,46.33,186.91,34.78Zm-23.37-16.9a15.17,15.17,0,0,0,1.13-5,14.85,14.85,0,0,1,2.31.66c.39.13.66.33.66.59a1.55,1.55,0,0,1-.47.86,6.39,6.39,0,0,0-.79,1.45,48.86,48.86,0,0,1-8.64,15.78c-.46.59-.46.59-1.19.13a3.72,3.72,0,0,0-1.52-.53A39.71,39.71,0,0,0,163.54,17.88Zm13.67,8.91c0,4.62.06,6.21.06,7.79,0,2.24-.53,3.3-1.58,4.22s-2.71,1.13-7.79,1.06c-.86,0-.86,0-1.06-.86a4.36,4.36,0,0,0-.79-1.71,48,48,0,0,0,6.14.33c1.85,0,2.84-.73,2.84-3.43V8.32c0-3.83-.07-5.61-.46-7.2a27,27,0,0,1,2.7.33c.4.07.66.27.66.46a2.88,2.88,0,0,1-.39,1.19c-.27.66-.33,1.78-.33,5.15Zm9.17-13.72c.86-.4.92-.4,1.12-.07a52.42,52.42,0,0,0,11.81,16,3.42,3.42,0,0,0-1.38.86c-.6.53-.6.53-1.06,0a59.81,59.81,0,0,1-11.28-16.1C185.39,13.4,185.59,13.4,186.38,13.07Z"/><path d="M231.13,14.58c-.46,4-1,7.66-1.72,11h22.44a4.63,4.63,0,0,0,1.45-.2,1.92,1.92,0,0,1,.53-.13c.27,0,.53.06,1.19.79s.79,1.05.79,1.19-.13.39-.46.59a5.49,5.49,0,0,0-1.32,2c-3,6.07-6.07,11.35-10.36,15.9,6.73,5.22,15.05,8.58,24,10.83a4.16,4.16,0,0,0-1.32,1.32c-.46.72-.46.72-1.19.52-9.1-2.83-16.83-6.26-23-11.21-5.15,4.88-12,8.84-21.91,11.68-.79.19-.79.19-1.19-.47a3.27,3.27,0,0,0-1.18-1.12c10.22-2.57,17.35-6.53,22.7-11.48a41.38,41.38,0,0,1-11.82-17.49A41.41,41.41,0,0,1,227,33.85,55.69,55.69,0,0,1,210.28,57c-.6.53-.6.53-1.26-.06a3.65,3.65,0,0,0-1.52-.79A48.73,48.73,0,0,0,225,33.46c1.78-4.55,3.17-11.35,4-18.88h-9.37c-6.6,0-8.78.14-9.11.14s-.39-.07-.39-.4V12.87c0-.33.06-.4.39-.4s2.51.13,9.11.13h9.57L229.48,9a46.76,46.76,0,0,0,.2-8.84c.92.06,1.85.2,2.64.33.39.06.72.26.72.53a2.23,2.23,0,0,1-.52,1.12c-.33.53-.53,3.76-.86,7.06-.13,1.19-.27,2.31-.33,3.36h25.08c6.59,0,8.77-.13,9.1-.13s.4.07.4.4v1.45c0,.33-.07.4-.4.4s-2.51-.14-9.1-.14Zm-.66,13A38.47,38.47,0,0,0,242,44.41c4.75-4.88,7.92-10.62,10.56-16.82Z"/><path d="M289.47,25.61V42.7a87,87,0,0,0,9.31-4.82,5.72,5.72,0,0,0-.26,1.39c0,.92,0,.92-.73,1.32a131.11,131.11,0,0,1-15.24,7.26A16.79,16.79,0,0,0,279.91,49c-.2.2-.33.33-.6.33s-.33-.13-.53-.46a13.11,13.11,0,0,1-1-2.11A36.73,36.73,0,0,0,283.87,45l3.56-1.39v-18h-1.85c-4.42,0-5.67.13-6,.13s-.4-.07-.4-.4V24c0-.33.07-.4.4-.4s1.58.13,6,.13h1.85v-16h-2.38c-4.81,0-6.2.13-6.53.13s-.4-.06-.4-.39V6.07c0-.33.07-.39.4-.39s1.72.13,6.53.13h6.74c4.81,0,6.2-.13,6.53-.13s.39.06.39.39V7.46c0,.33-.06.39-.39.39s-1.72-.13-6.53-.13h-2.32v16h1.65c4.43,0,5.68-.13,6-.13s.4.07.4.4v1.38c0,.33-.07.4-.4.4s-1.58-.13-6-.13ZM323.79,4.69c6.27,0,8.45-.14,8.78-.14s.39.07.39.4-.13,2-.13,7.19V24.75c0,5.21.13,6.86.13,7.19s-.06.4-.39.4-2.51-.13-8.78-.13h-6.2v9.1h7c6.41,0,8.45-.13,8.78-.13s.4.07.4.4V42.9c0,.33-.07.39-.4.39s-2.37-.13-8.78-.13h-7V53.59h10.16c6.93,0,9.24-.13,9.57-.13s.4.06.4.39v1.32c0,.33-.07.4-.4.4s-2.64-.13-9.57-.13H303.33c-6.93,0-9.24.13-9.57.13s-.39-.07-.39-.4V53.85c0-.33.06-.39.39-.39s2.64.13,9.57.13h12.21V43.16H309.8c-6.4,0-8.45.13-8.78.13s-.39-.06-.39-.39V41.58c0-.33.06-.4.39-.4s2.38.13,8.78.13h5.74v-9.1h-5.61c-6.27,0-8.44.13-8.77.13s-.4-.07-.4-.4.13-2,.13-7.19V12.14c0-5.21-.13-6.86-.13-7.19s.07-.4.4-.4,2.5.14,8.77.14Zm-20.85,12.6h12.6V6.6h-12.6Zm0,13.07h12.6V19.14h-12.6ZM317.59,6.6V17.29h13.2V6.6Zm13.2,12.54h-13.2V30.36h13.2Z"/><path d="M34.08,93.46A9,9,0,0,1,25,102.51a9.05,9.05,0,0,1-.14-18.1A9,9,0,0,1,34.08,93.46Zm-16.37.07A7.29,7.29,0,1,0,25,86.09,7.21,7.21,0,0,0,17.71,93.53Z"/><path d="M44.71,84.84h8.64v1.68H46.44v5.4h6.91V93.6H46.44v8.47H44.71Z"/><path d="M63.55,84.84h8.64v1.68H65.28v5.4h6.91V93.6H65.28v8.47H63.55Z"/><path d="M82.15,84.84h1.73v17.23H82.15Z"/><path d="M109.7,89.06a7.43,7.43,0,0,0-6.14-3,7.41,7.41,0,1,0,.09,14.81,7.74,7.74,0,0,0,6-2.86l1.37,1a9.24,9.24,0,0,1-7.54,3.41c-5.76,0-9.29-4.06-9.29-9.12s3.94-9,9.29-9A8.94,8.94,0,0,1,111.07,88Z"/><path d="M121.48,84.84h1.73v17.23h-1.73Z"/><path d="M141.4,84.84l8,17.23h-1.85l-2.71-5.66h-7.44l-2.69,5.66h-1.92L141,84.84Zm-.21,3.65-3,6.24h5.91Z"/><path d="M159.33,84.84h1.73v15.55h6.62v1.68h-8.35Z"/><path d="M190.51,84.84h1.77l3.51,12.41,4.94-12.41h.36L206,97.25l3.58-12.41h1.75l-4.94,17.23H206l-5.09-13-5.23,13h-.31Z"/><path d="M221.73,84.84h9.84v1.68h-8.11v5.4h8.11V93.6h-8.11v6.79h8.11v1.68h-9.84Z"/><path d="M241.82,102.07V84.84h3.65c3.62,0,5.28,1.78,5.28,4.2a4,4,0,0,1-2.21,3.62c2.4.82,3.62,2.31,3.62,4.47,0,2.57-2,4.94-5.61,4.94Zm1.73-10h1.15a5.45,5.45,0,0,0,3-.64A2.85,2.85,0,0,0,249,89c0-1.54-1.16-2.52-3.15-2.52h-2.25Zm0,8.33h2.08c.75,0,1.49-.12,2.07-.16a3.2,3.2,0,0,0,2.66-3.08,3.14,3.14,0,0,0-1.68-2.76,8.44,8.44,0,0,0-4-.65h-1.17Z"/><path d="M269.37,88.3c-.94-1.23-1.75-2.12-3.17-2.12a2.19,2.19,0,0,0-2.33,2.19A3.5,3.5,0,0,0,265.41,91c3.24,2.4,5.62,4.06,5.62,6.84a4.75,4.75,0,0,1-4.85,4.64c-2.38,0-3.94-1.32-5.21-3.65l1.46-.89c1,1.9,2.28,2.86,3.6,2.86a3.07,3.07,0,0,0,3.2-2.93c0-1.9-1.78-3-5.69-6.15a4.49,4.49,0,0,1-1.47-3.31,4,4,0,0,1,4.18-4c2.11,0,3.38,1.27,4.51,2.81Z"/><path d="M281.66,84.84h1.72v17.23h-1.72Z"/><path d="M292.82,86.52V84.84h9.45v1.68h-3.84v15.55h-1.72V86.52Z"/><path d="M312,84.84h9.84v1.68H313.7v5.4h8.11V93.6H313.7v6.79h8.11v1.68H312Z"/></g></g></svg>